<?xml version="1.0" encoding="UTF-8" standalone="no"?>
<!DOCTYPE svg PUBLIC "-//W3C//DTD SVG 1.1//EN"
 "http://www.w3.org/Graphics/SVG/1.1/DTD/svg11.dtd">
<!-- Generated by graphviz version 2.43.0 (0)
 -->
<!-- Title: pastafarianism Pages: 1 -->
<svg width="456pt" height="188pt"
 viewBox="0.00 0.00 455.85 188.00" xmlns="http://www.w3.org/2000/svg" xmlns:xlink="http://www.w3.org/1999/xlink">
<g id="graph0" class="graph" transform="scale(1 1) rotate(0) translate(4 184)">
<title>pastafarianism</title>
<polygon fill="white" stroke="transparent" points="-4,4 -4,-184 451.85,-184 451.85,4 -4,4"/>
<!-- Frontier Exploration -->
<g id="node1" class="node">
<title>Frontier Exploration</title>
<polygon fill="orange" stroke="black" points="272.77,-180 148.77,-180 148.77,-144 272.77,-144 272.77,-180"/>
<text text-anchor="middle" x="210.77" y="-159.8" font-family="Times,serif" font-size="9.00">Ⓜ Frontier Exploration</text>
</g>
<!-- Invertor -->
<g id="node2" class="node">
<title>Invertor</title>
<ellipse fill="ghostwhite" stroke="black" cx="46.77" cy="-90" rx="31.51" ry="18"/>
<text text-anchor="middle" x="46.77" y="-87.8" font-family="Times,serif" font-size="9.00">Invertor</text>
</g>
<!-- Frontier Exploration&#45;&gt;Invertor -->
<g id="edge1" class="edge">
<title>Frontier Exploration&#45;&gt;Invertor</title>
<path fill="none" stroke="black" d="M170.65,-143.88C143.23,-132.18 107.29,-116.83 81.18,-105.69"/>
<polygon fill="black" stroke="black" points="82.27,-102.35 71.69,-101.64 79.52,-108.79 82.27,-102.35"/>
</g>
<!-- Explore_Selec -->
<g id="node4" class="node">
<title>Explore_Selec</title>
<polygon fill="cyan" stroke="black" points="213.75,-82.54 213.75,-97.46 179.2,-108 130.33,-108 95.78,-97.46 95.78,-82.54 130.33,-72 179.2,-72 213.75,-82.54"/>
<text text-anchor="middle" x="154.77" y="-87.8" font-family="Times,serif" font-size="9.00">Ⓜ Explore_Selec</text>
</g>
<!-- Frontier Exploration&#45;&gt;Explore_Selec -->
<g id="edge3" class="edge">
<title>Frontier Exploration&#45;&gt;Explore_Selec</title>
<path fill="none" stroke="black" d="M196.92,-143.7C190.28,-135.39 182.19,-125.28 174.88,-116.14"/>
<polygon fill="black" stroke="black" points="177.43,-113.73 168.45,-108.1 171.96,-118.1 177.43,-113.73"/>
</g>
<!-- plan path -->
<g id="node7" class="node">
<title>plan path</title>
<ellipse fill="gray" stroke="black" cx="266.77" cy="-90" rx="35.44" ry="18"/>
<text text-anchor="middle" x="266.77" y="-87.8" font-family="Times,serif" font-size="9.00">plan path</text>
</g>
<!-- Frontier Exploration&#45;&gt;plan path -->
<g id="edge6" class="edge">
<title>Frontier Exploration&#45;&gt;plan path</title>
<path fill="none" stroke="black" d="M224.61,-143.7C231.52,-135.05 240,-124.46 247.53,-115.04"/>
<polygon fill="black" stroke="black" points="250.34,-117.14 253.85,-107.14 244.87,-112.77 250.34,-117.14"/>
</g>
<!-- plan and follow path -->
<g id="node8" class="node">
<title>plan and follow path</title>
<ellipse fill="gray" stroke="black" cx="383.77" cy="-90" rx="64.17" ry="18"/>
<text text-anchor="middle" x="383.77" y="-87.8" font-family="Times,serif" font-size="9.00">plan and follow path</text>
</g>
<!-- Frontier Exploration&#45;&gt;plan and follow path -->
<g id="edge7" class="edge">
<title>Frontier Exploration&#45;&gt;plan and follow path</title>
<path fill="none" stroke="black" d="M253.09,-143.88C279.28,-133.28 312.86,-119.69 339.42,-108.94"/>
<polygon fill="black" stroke="black" points="340.9,-112.12 348.86,-105.12 338.28,-105.63 340.9,-112.12"/>
</g>
<!-- explore_finish -->
<g id="node3" class="node">
<title>explore_finish</title>
<ellipse fill="gray" stroke="black" cx="46.77" cy="-18" rx="46.53" ry="18"/>
<text text-anchor="middle" x="46.77" y="-15.8" font-family="Times,serif" font-size="9.00">explore_finish</text>
</g>
<!-- Invertor&#45;&gt;explore_finish -->
<g id="edge2" class="edge">
<title>Invertor&#45;&gt;explore_finish</title>
<path fill="none" stroke="black" d="M46.77,-71.7C46.77,-63.98 46.77,-54.71 46.77,-46.11"/>
<polygon fill="black" stroke="black" points="50.27,-46.1 46.77,-36.1 43.27,-46.1 50.27,-46.1"/>
</g>
<!-- explore_list -->
<g id="node5" class="node">
<title>explore_list</title>
<ellipse fill="gray" stroke="black" cx="152.77" cy="-18" rx="40.33" ry="18"/>
<text text-anchor="middle" x="152.77" y="-15.8" font-family="Times,serif" font-size="9.00">explore_list</text>
</g>
<!-- Explore_Selec&#45;&gt;explore_list -->
<g id="edge4" class="edge">
<title>Explore_Selec&#45;&gt;explore_list</title>
<path fill="none" stroke="black" d="M154.27,-71.7C154.05,-63.98 153.79,-54.71 153.54,-46.11"/>
<polygon fill="black" stroke="black" points="157.04,-46 153.25,-36.1 150.04,-46.2 157.04,-46"/>
</g>
<!-- set_exploration -->
<g id="node6" class="node">
<title>set_exploration</title>
<ellipse fill="gray" stroke="black" cx="261.77" cy="-18" rx="50.46" ry="18"/>
<text text-anchor="middle" x="261.77" y="-15.8" font-family="Times,serif" font-size="9.00">set_exploration</text>
</g>
<!-- Explore_Selec&#45;&gt;set_exploration -->
<g id="edge5" class="edge">
<title>Explore_Selec&#45;&gt;set_exploration</title>
<path fill="none" stroke="black" d="M180.39,-72.23C195.31,-62.47 214.25,-50.09 230.09,-39.72"/>
<polygon fill="black" stroke="black" points="232.08,-42.6 238.53,-34.2 228.25,-36.74 232.08,-42.6"/>
</g>
</g>
</svg>
